<?xml version="1.0" encoding="utf-8"?>
<!-- Generator: Adobe Illustrator 25.2.1, SVG Export Plug-In . SVG Version: 6.00 Build 0)  -->
<svg version="1.1" id="Capa_1" xmlns="http://www.w3.org/2000/svg" xmlns:xlink="http://www.w3.org/1999/xlink" x="0px" y="0px"
	 viewBox="0 0 560 288" style="enable-background:new 0 0 560 288;" xml:space="preserve">
<style type="text/css">
	.st0{fill:#E5007E;stroke:#E5007E;stroke-miterlimit:10;}
	.st1{fill:none;stroke:#1D1D1B;stroke-miterlimit:10;}
	.st2{fill:#FFEC00;stroke:#FFEC00;stroke-miterlimit:10;}
	.st3{fill:#009EE2;stroke:#009EE2;stroke-miterlimit:10;}
	.st4{fill:none;}
	.st5{fill:#E5007E;}
	.st6{font-family:'Roboto-Regular';}
	.st7{font-size:60px;}
	.st8{fill:#009EE2;}
	.st9{fill:#FFEC00;}
</style>
<path class="st0" d="M452.79,92.76c0.57,31.51-43.83,30.22-43.22-0.15C410.38,59.12,451.97,59.5,452.79,92.76z"/>
<path class="st1" d="M422.32,224.68"/>
<path class="st1" d="M422.32,124.68"/>
<path class="st2" d="M367,119.31c1.17,27.93-37.06,26.32-36.63-0.68C328.66,91.18,367.68,94.38,367,119.31z"/>
<path class="st3" d="M419.09,129.53c0.65,20.82-27.72,20.81-27.06,0C390.9,108,419.32,109.43,419.09,129.53z"/>
<path class="st0" d="M451.77,108.76c0,0,33.43,60.93-35.67,95.57c0,0,46.06-46.03,21.72-84.5c0,0,9.19,0.34,13.96-10.21"/>
<path class="st0" d="M407,85.57c0,0-2.51,7.03-1.45,10.08c0,0-20.68-5.11-40.09,2.72C365.47,98.38,393.72,83.19,407,85.57z"/>
<path class="st3" d="M421.13,136.94c0,0,19.74,40.93-15.57,67.82c0,0,22.89-36.09,7.4-58.04
	C412.96,146.72,420.45,144.02,421.13,136.94z"/>
<path class="st3" d="M389.13,126.81c0,0-17.87,4.94-24.17,13.11c0,0,23.15-8,25.19-4.94C390.15,134.98,387.94,132.42,389.13,126.81z
	"/>
<path class="st2" d="M367,104.68c0,0,22.55-4.13,34.21-1.7c0,0-28.09,3.4-31.15,9.89C370.06,112.86,370.4,108.76,367,104.68z"/>
<path class="st2" d="M351.85,142.47c0.16-0.06-1.36,54.3,42.21,60.26c0,0-57.19,0.68-57.19-62.81
	C336.87,139.91,343.34,145.53,351.85,142.47z"/>
<rect x="95.15" y="105.36" class="st4" width="46.98" height="56"/>
<text transform="matrix(1 0 0 1 95.1492 150.3589)" class="st5 st6 st7">C</text>
<rect x="132.43" y="105.36" class="st4" width="149.4" height="56"/>
<text transform="matrix(1 0 0 1 132.4254 150.3589)" class="st8 st6 st7">EPSE</text>
<rect x="189.11" y="149.71" class="st4" width="2" height="0"/>
<rect x="271.31" y="105.36" class="st4" width="55.06" height="56"/>
<text transform="matrix(1 0 0 1 271.3076 150.3589)" class="st9 st6 st7">M</text>
<g>
	<g>
	</g>
</g>
</svg>
