<?xml version="1.0" encoding="utf-8"?>
<!-- Generator: Adobe Illustrator 25.2.1, SVG Export Plug-In . SVG Version: 6.00 Build 0)  -->
<svg version="1.1" xmlns="http://www.w3.org/2000/svg" xmlns:xlink="http://www.w3.org/1999/xlink" x="0px" y="0px"
	 viewBox="0 0 560 288" style="enable-background:new 0 0 560 288;" xml:space="preserve">
<style type="text/css">
	.st0{fill:#020202;}
	.st1{fill:#E5007E;stroke:#E5007E;stroke-miterlimit:10;}
	.st2{fill:none;stroke:#1D1D1B;stroke-miterlimit:10;}
	.st3{fill:#FFEC00;stroke:#FFEC00;stroke-miterlimit:10;}
	.st4{fill:#009EE2;stroke:#009EE2;stroke-miterlimit:10;}
	.st5{fill:none;}
	.st6{fill:#E5007E;}
	.st7{font-family:'Roboto-Regular';}
	.st8{font-size:60px;}
	.st9{fill:#009EE2;}
	.st10{fill:#FFEC00;}
</style>
<g id="Capa_2">
	<rect x="-10.1" y="-8.28" class="st0" width="573.03" height="297.9"/>
</g>
<g id="Capa_1">
	<path class="st1" d="M416.79,74.76c0.57,31.51-43.83,30.22-43.22-0.15C374.38,41.12,415.97,41.5,416.79,74.76z"/>
	<path class="st2" d="M422.32,224.68"/>
	<path class="st2" d="M386.32,106.68"/>
	<path class="st3" d="M331,101.31c1.17,27.93-37.06,26.32-36.63-0.68C292.66,73.18,331.68,76.38,331,101.31z"/>
	<path class="st4" d="M383.09,111.53c0.65,20.82-27.72,20.81-27.06,0C354.9,90,383.32,91.43,383.09,111.53z"/>
	<path class="st1" d="M415.77,90.76c0,0,33.43,59.93-35.67,94.57c0,0,46.06-45.03,21.72-83.5c0,0,9.19,0.34,13.96-10.21"/>
	<path class="st1" d="M371,67.57c0,0-2.51,7.03-1.45,10.08c0,0-20.68-5.11-40.09,2.72C329.47,80.38,357.72,65.19,371,67.57z"/>
	<path class="st4" d="M385.13,118.94c0,0,19.74,39.93-15.57,66.82c0,0,22.89-35.09,7.4-57.04
		C376.96,128.72,384.45,126.02,385.13,118.94z"/>
	<path class="st4" d="M353.13,108.81c0,0-17.87,4.94-24.17,13.11c0,0,23.15-8,25.19-4.94C354.15,116.98,351.94,114.42,353.13,108.81
		z"/>
	<path class="st3" d="M331,86.68c0,0,22.55-4.13,34.21-1.7c0,0-28.09,3.4-31.15,9.89C334.06,94.86,334.4,90.76,331,86.68z"/>
	<path class="st3" d="M315.85,124.47c0.16-0.06-1.36,53.3,42.21,59.26c0,0-57.19,1.68-57.19-61.81
		C300.87,121.91,307.34,127.53,315.85,124.47z"/>
	<rect x="63.15" y="103.36" class="st5" width="46.98" height="56"/>
	<text transform="matrix(1 0 0 1 63.1492 148.3589)" class="st6 st7 st8">C</text>
	<rect x="100.43" y="103.36" class="st5" width="149.4" height="56"/>
	<text transform="matrix(1 0 0 1 100.4254 148.3589)" class="st9 st7 st8">EPSE</text>
	<rect x="157.11" y="147.71" class="st5" width="2" height="0"/>
	<rect x="239.31" y="103.36" class="st5" width="55.06" height="56"/>
	<text transform="matrix(1 0 0 1 239.3076 148.3589)" class="st10 st7 st8">M</text>
	<g>
		<g>
		</g>
	</g>
</g>
</svg>
