<?xml version="1.0" encoding="utf-8"?>
<!-- Generator: Adobe Illustrator 25.2.1, SVG Export Plug-In . SVG Version: 6.00 Build 0)  -->
<svg version="1.1" id="Capa_1" xmlns="http://www.w3.org/2000/svg" xmlns:xlink="http://www.w3.org/1999/xlink" x="0px" y="0px"
	 viewBox="0 0 560 288" style="enable-background:new 0 0 560 288;" xml:space="preserve">
<style type="text/css">
	.st0{fill:#E5007E;stroke:#E5007E;stroke-miterlimit:10;}
	.st1{fill:none;stroke:#1D1D1B;stroke-miterlimit:10;}
	.st2{fill:#FFEC00;stroke:#FFEC00;stroke-miterlimit:10;}
	.st3{fill:#009EE2;stroke:#009EE2;stroke-miterlimit:10;}
	.st4{fill:none;}
	.st5{fill:#E5007E;}
	.st6{font-family:'Roboto-Regular';}
	.st7{font-size:60px;}
	.st8{fill:#009EE2;}
	.st9{fill:#FFEC00;}
</style>
<path class="st0" d="M316.79,71.76c0.57,31.51-43.83,30.22-43.22-0.15C274.38,38.12,315.97,38.5,316.79,71.76z"/>
<path class="st1" d="M422.32,224.68"/>
<path class="st1" d="M286.32,103.68"/>
<path class="st2" d="M231,98.31c1.17,27.93-37.06,26.32-36.63-0.68C192.66,70.18,231.68,73.38,231,98.31z"/>
<path class="st3" d="M283.09,108.53c0.65,20.82-27.72,20.81-27.06,0C254.9,87,283.32,88.43,283.09,108.53z"/>
<path class="st0" d="M315.77,87.76c0,0,33.43,59.93-35.67,94.57c0,0,46.06-45.03,21.72-83.5c0,0,9.19,0.34,13.96-10.21"/>
<path class="st0" d="M271,64.57c0,0-2.51,7.03-1.45,10.08c0,0-20.68-5.11-40.09,2.72C229.47,77.38,257.72,62.19,271,64.57z"/>
<path class="st3" d="M285.13,115.94c0,0,19.74,39.93-15.57,66.82c0,0,22.89-35.09,7.4-57.04
	C276.96,125.72,284.45,123.02,285.13,115.94z"/>
<path class="st3" d="M253.13,105.81c0,0-17.87,4.94-24.17,13.11c0,0,23.15-8,25.19-4.94C254.15,113.98,251.94,111.42,253.13,105.81z
	"/>
<path class="st2" d="M231,83.68c0,0,22.55-4.13,34.21-1.7c0,0-28.09,3.4-31.15,9.89C234.06,91.86,234.4,87.76,231,83.68z"/>
<path class="st2" d="M215.85,121.47c0.16-0.06-1.36,53.3,42.21,59.26c0,0-57.19,1.68-57.19-61.81
	C200.87,118.91,207.34,124.53,215.85,121.47z"/>
<rect x="140.15" y="191.36" class="st4" width="46.98" height="56"/>
<text transform="matrix(1 0 0 1 140.1492 236.3589)" class="st5 st6 st7">C</text>
<rect x="177.43" y="191.36" class="st4" width="149.4" height="56"/>
<text transform="matrix(1 0 0 1 177.4254 236.3589)" class="st8 st6 st7">EPSE</text>
<rect x="234.11" y="235.71" class="st4" width="2" height="0"/>
<rect x="316.31" y="191.36" class="st4" width="55.06" height="56"/>
<text transform="matrix(1 0 0 1 316.3076 236.3589)" class="st9 st6 st7">M</text>
<g>
	<g>
	</g>
</g>
</svg>
