<svg width="21" height="18" viewBox="0 0 21 18" fill="none" xmlns="http://www.w3.org/2000/svg">
<path d="M19.008 4.5L19.764 3.77C19.9659 3.57507 20.0793 3.31068 20.0793 3.035C20.0793 2.75932 19.9659 2.49494 19.764 2.3C19.5621 2.10507 19.2883 1.99555 19.0028 1.99555C18.7173 1.99555 18.4435 2.10507 18.2417 2.3L17.4857 3L16.7297 2.27C16.5237 2.07507 16.2459 1.96713 15.9575 1.96995C15.6691 1.97276 15.3937 2.08609 15.1918 2.285C14.9899 2.48391 14.8782 2.75212 14.8811 3.03061C14.884 3.3091 15.0014 3.57507 15.2073 3.77L15.9633 4.5L15.2073 5.23C15.0055 5.42494 14.8921 5.68932 14.8921 5.965C14.8921 6.24068 15.0055 6.50507 15.2073 6.7C15.4092 6.89494 15.683 7.00445 15.9685 7.00445C16.254 7.00445 16.5278 6.89494 16.7297 6.7L17.4857 6L18.2417 6.73C18.4477 6.92494 18.7254 7.03287 19.0138 7.03006C19.3022 7.02724 19.5777 6.91391 19.7795 6.715C19.9814 6.51609 20.0932 6.24789 20.0903 5.9694C20.0874 5.6909 19.97 5.42494 19.764 5.23L19.008 4.5ZM8.16524 8C8.98453 8 9.78543 7.76541 10.4666 7.32588C11.1479 6.88635 11.6788 6.26164 11.9923 5.53074C12.3059 4.79983 12.3879 3.99556 12.2281 3.21964C12.0682 2.44372 11.6737 1.73098 11.0944 1.17157C10.515 0.612164 9.77694 0.231202 8.97339 0.0768607C8.16984 -0.0774802 7.33693 0.00173312 6.58001 0.304484C5.82308 0.607234 5.17612 1.11992 4.72095 1.77772C4.26577 2.43552 4.02283 3.20888 4.02283 4C4.02283 5.06087 4.45926 6.07828 5.23611 6.82843C6.01296 7.57857 7.0666 8 8.16524 8ZM14.3789 18C14.6535 18 14.9169 17.8946 15.1111 17.7071C15.3054 17.5196 15.4145 17.2652 15.4145 17C15.4145 15.1435 14.6507 13.363 13.2912 12.0503C11.9317 10.7375 10.0879 10 8.16524 10C6.24263 10 4.39876 10.7375 3.03926 12.0503C1.67977 13.363 0.916016 15.1435 0.916016 17C0.916016 17.2652 1.02512 17.5196 1.21934 17.7071C1.41355 17.8946 1.67696 18 1.95162 18H14.3789Z" fill="#FF0000" fill-opacity="0.82"/>
</svg>
